<?xml version="1.0" encoding="iso-8859-1"?>
<!-- Uploaded to: SVG Repo, www.svgrepo.com, Generator: SVG Repo Mixer Tools -->
<svg fill="#00c500" height="800px" width="800px" version="1.1" id="Capa_1" xmlns="http://www.w3.org/2000/svg" xmlns:xlink="http://www.w3.org/1999/xlink" 
	 viewBox="0 0 465.99 465.99" xml:space="preserve">
<g>
	<path d="M133.539,344.23c0.024,0.024,0.048,0.048,0.073,0.072c1.595,1.554,3.704,2.41,5.938,2.41c2.234,0,4.343-0.856,5.938-2.41
		c0.03-0.029,0.059-0.058,0.088-0.087c1.597-1.604,2.476-3.736,2.476-6.003c0-2.191-0.835-4.276-2.351-5.869
		c-0.084-0.089-0.171-0.176-0.26-0.26c-1.595-1.529-3.687-2.371-5.891-2.371c-2.26,0-4.39,0.88-5.997,2.479
		c-1.614,1.606-2.503,3.744-2.503,6.021C131.049,340.488,131.933,342.626,133.539,344.23z"/>
	<path d="M109.615,252.333c0.029,0.029,0.058,0.058,0.088,0.087c1.595,1.554,3.704,2.41,5.938,2.41c2.234,0,4.343-0.856,5.938-2.41
		c0.035-0.034,0.069-0.067,0.103-0.102c1.587-1.603,2.461-3.73,2.461-5.988c0-2.184-0.83-4.264-2.338-5.855
		c-0.088-0.094-0.179-0.186-0.272-0.274c-1.595-1.529-3.687-2.371-5.891-2.371c-2.268,0-4.402,0.886-5.997,2.479
		c-1.614,1.606-2.503,3.744-2.503,6.021C107.14,248.598,108.019,250.73,109.615,252.333z"/>
	<path d="M464.505,303.176c0.055-0.077,0.106-0.155,0.158-0.233c0.1-0.152,0.196-0.306,0.285-0.464
		c0.05-0.089,0.099-0.178,0.146-0.269c0.08-0.155,0.153-0.312,0.223-0.471c0.043-0.098,0.086-0.195,0.125-0.294
		c0.064-0.164,0.119-0.331,0.172-0.499c0.03-0.096,0.064-0.191,0.091-0.289c0.06-0.218,0.108-0.439,0.149-0.661
		c0.008-0.044,0.022-0.086,0.029-0.13c0.001-0.005,0.001-0.011,0.002-0.016c0.046-0.277,0.077-0.556,0.094-0.837
		c0.003-0.057,0.001-0.115,0.003-0.172c0.009-0.222,0.011-0.444,0.001-0.667c-0.004-0.08-0.013-0.159-0.019-0.239
		c-0.015-0.199-0.035-0.398-0.065-0.597c-0.013-0.086-0.03-0.172-0.046-0.257c-0.035-0.187-0.075-0.374-0.123-0.559
		c-0.024-0.093-0.051-0.185-0.078-0.277c-0.051-0.171-0.108-0.34-0.172-0.509c-0.038-0.102-0.078-0.204-0.12-0.305
		c-0.064-0.151-0.134-0.3-0.208-0.448c-0.055-0.11-0.11-0.22-0.17-0.328c-0.027-0.048-0.047-0.098-0.075-0.146
		c-0.054-0.094-0.118-0.178-0.175-0.269c-0.064-0.101-0.127-0.202-0.196-0.301c-0.108-0.154-0.224-0.3-0.341-0.445
		c-0.045-0.055-0.083-0.115-0.129-0.169l-225-262.161c-0.05-0.059-0.108-0.109-0.159-0.167c-0.117-0.128-0.235-0.255-0.36-0.376
		c-0.08-0.077-0.162-0.149-0.245-0.222c-0.124-0.11-0.25-0.217-0.38-0.319c-0.085-0.067-0.172-0.131-0.26-0.195
		c-0.139-0.1-0.281-0.195-0.426-0.286c-0.085-0.053-0.169-0.106-0.255-0.155c-0.159-0.092-0.323-0.176-0.489-0.257
		c-0.079-0.038-0.157-0.078-0.237-0.114c-0.181-0.081-0.367-0.152-0.556-0.22c-0.071-0.026-0.141-0.054-0.212-0.078
		c-0.201-0.066-0.407-0.12-0.615-0.17c-0.064-0.016-0.126-0.035-0.191-0.049c-0.217-0.047-0.439-0.08-0.663-0.109
		c-0.058-0.007-0.115-0.02-0.173-0.026c-0.28-0.03-0.563-0.046-0.85-0.046s-0.571,0.017-0.85,0.046
		c-0.058,0.006-0.115,0.019-0.173,0.026c-0.223,0.029-0.445,0.062-0.663,0.109c-0.064,0.014-0.127,0.034-0.191,0.049
		c-0.208,0.05-0.414,0.104-0.615,0.17c-0.072,0.024-0.141,0.052-0.212,0.078c-0.188,0.068-0.374,0.139-0.556,0.22
		c-0.08,0.036-0.158,0.076-0.237,0.114c-0.166,0.081-0.329,0.165-0.489,0.257c-0.086,0.05-0.171,0.102-0.255,0.155
		c-0.145,0.091-0.287,0.186-0.426,0.286c-0.088,0.063-0.175,0.128-0.26,0.195c-0.13,0.102-0.256,0.209-0.38,0.319
		c-0.082,0.073-0.165,0.146-0.245,0.222c-0.125,0.121-0.243,0.247-0.36,0.376c-0.052,0.057-0.109,0.108-0.159,0.167l-49.955,58.206
		c-0.005,0.005-0.009,0.011-0.014,0.016l-43.361,50.522c-0.005,0.006-0.01,0.011-0.015,0.017L1.924,293.325
		c-0.046,0.054-0.084,0.113-0.129,0.168c-0.117,0.145-0.233,0.291-0.342,0.446c-0.069,0.098-0.131,0.199-0.196,0.3
		c-0.058,0.091-0.121,0.175-0.176,0.269c-0.028,0.048-0.049,0.098-0.076,0.146c-0.06,0.108-0.114,0.217-0.169,0.327
		c-0.074,0.149-0.144,0.298-0.208,0.449c-0.042,0.101-0.082,0.202-0.12,0.305c-0.063,0.169-0.121,0.338-0.172,0.509
		c-0.028,0.092-0.054,0.184-0.078,0.277c-0.048,0.186-0.089,0.372-0.123,0.559c-0.016,0.086-0.033,0.171-0.046,0.257
		c-0.03,0.199-0.05,0.399-0.065,0.598c-0.006,0.079-0.015,0.157-0.019,0.236c-0.01,0.223-0.008,0.446,0.001,0.668
		c0.002,0.057,0,0.114,0.003,0.171c0.017,0.281,0.048,0.56,0.094,0.837c0.001,0.005,0.001,0.011,0.002,0.016
		c0.007,0.044,0.021,0.086,0.029,0.13c0.041,0.222,0.089,0.443,0.149,0.661c0.027,0.098,0.061,0.192,0.091,0.289
		c0.053,0.168,0.108,0.335,0.172,0.499c0.039,0.1,0.082,0.197,0.125,0.294c0.069,0.159,0.143,0.316,0.223,0.471
		c0.047,0.091,0.096,0.18,0.146,0.269c0.089,0.158,0.185,0.312,0.285,0.464c0.052,0.078,0.103,0.156,0.158,0.233
		c0.112,0.157,0.232,0.309,0.355,0.458c0.054,0.065,0.105,0.131,0.161,0.195c0.135,0.153,0.28,0.299,0.428,0.443
		c0.055,0.053,0.106,0.109,0.162,0.16c0.16,0.146,0.329,0.283,0.503,0.417c0.053,0.041,0.102,0.086,0.156,0.126
		c0.229,0.168,0.467,0.327,0.718,0.473l225,131.08c0.023,0.013,0.047,0.022,0.07,0.035c0.285,0.163,0.579,0.312,0.885,0.439
		c0.006,0.002,0.012,0.004,0.018,0.007c0.287,0.119,0.585,0.217,0.888,0.302c0.078,0.022,0.156,0.041,0.234,0.06
		c0.239,0.059,0.481,0.107,0.728,0.145c0.083,0.012,0.165,0.028,0.248,0.038c0.314,0.038,0.632,0.062,0.956,0.062
		s0.642-0.025,0.956-0.062c0.083-0.01,0.165-0.025,0.248-0.038c0.247-0.037,0.489-0.085,0.728-0.145
		c0.078-0.02,0.156-0.038,0.234-0.06c0.303-0.085,0.6-0.183,0.888-0.302c0.006-0.002,0.012-0.004,0.018-0.007
		c0.306-0.127,0.6-0.277,0.885-0.439c0.023-0.013,0.048-0.022,0.07-0.035l225-131.08c0.251-0.146,0.489-0.305,0.718-0.473
		c0.054-0.04,0.103-0.085,0.156-0.126c0.173-0.134,0.343-0.271,0.503-0.417c0.056-0.052,0.108-0.107,0.162-0.16
		c0.148-0.144,0.293-0.29,0.428-0.443c0.056-0.063,0.108-0.13,0.161-0.195C464.274,303.485,464.393,303.333,464.505,303.176z
		 M54.532,256.597l170.464,99.308v59.791L20.321,296.457L54.532,256.597z M97.907,206.058l65.991,38.445
		c1.267,0.738,2.652,1.089,4.02,1.089c2.753,0,5.434-1.423,6.92-3.975c2.224-3.817,0.932-8.715-2.886-10.939l-63.45-36.965
		l32.78-38.194l83.714,48.77v57.29l-23.04-13.422c-3.816-2.223-8.714-0.933-10.939,2.886c-2.224,3.817-0.932,8.715,2.886,10.939
		l31.094,18.115v57.291L65.126,244.252L97.907,206.058z M184.657,104.981l40.339,23.5v11.15c0,4.418,3.582,8,8,8s8-3.582,8-8v-11.15
		l40.339-23.5l32.78,38.194l-24.103,14.042c-3.818,2.224-5.11,7.122-2.886,10.939c1.486,2.551,4.166,3.975,6.92,3.975
		c1.367,0,2.753-0.351,4.02-1.089l26.644-15.522l32.78,38.194L240.995,261.58v-57.29l27.07-15.771
		c3.817-2.224,5.109-7.122,2.885-10.94c-2.225-3.817-7.123-5.108-10.94-2.885l-19.015,11.078v-16.141c0-4.418-3.582-8-8-8
		s-8,3.582-8,8v16.141l-73.119-42.597L184.657,104.981z M240.995,57.98l29.744,34.656l-29.744,17.328V57.98z M224.995,109.964
		l-29.744-17.328l29.744-34.656V109.964z M240.995,355.905l108.206-63.038c3.818-2.224,5.11-7.122,2.886-10.939
		c-2.224-3.818-7.124-5.109-10.939-2.886l-100.152,58.346v-57.291l127.089-74.039l32.78,38.194l-29.717,17.312
		c-3.817,2.224-5.109,7.122-2.885,10.94c1.486,2.551,4.167,3.974,6.92,3.974c1.368,0,2.753-0.351,4.02-1.089l32.257-18.793
		l34.211,39.861L240.995,415.696V355.905z"/>
</g>
</svg>